<?xml version="1.0" encoding="UTF-8" standalone="no"?>
<!-- Created with Inkscape (http://www.inkscape.org/) -->

<svg
   width="210mm"
   height="297mm"
   viewBox="0 0 210 297"
   version="1.1"
   id="svg5"
   xml:space="preserve"
   inkscape:version="1.2.2 (732a01da63, 2022-12-09)"
   sodipodi:docname="house martins.svg"
   xmlns:inkscape="http://www.inkscape.org/namespaces/inkscape"
   xmlns:sodipodi="http://sodipodi.sourceforge.net/DTD/sodipodi-0.dtd"
   xmlns="http://www.w3.org/2000/svg"
   xmlns:svg="http://www.w3.org/2000/svg"><sodipodi:namedview
     id="namedview7"
     pagecolor="#ffffff"
     bordercolor="#000000"
     borderopacity="0.25"
     inkscape:showpageshadow="2"
     inkscape:pageopacity="0.0"
     inkscape:pagecheckerboard="0"
     inkscape:deskcolor="#d1d1d1"
     inkscape:document-units="mm"
     showgrid="false"
     inkscape:zoom="1.6819304"
     inkscape:cx="308.574"
     inkscape:cy="423.91766"
     inkscape:window-width="1280"
     inkscape:window-height="953"
     inkscape:window-x="1912"
     inkscape:window-y="-8"
     inkscape:window-maximized="1"
     inkscape:current-layer="layer1" /><defs
     id="defs2" /><g
     inkscape:label="Layer 1"
     inkscape:groupmode="layer"
     id="layer1"><path
       style="fill:#000000;stroke-width:2;stroke-linecap:round;stroke-linejoin:round"
       d="m 89.056188,72.633408 c -0.163029,-0.163203 -1.382206,-1.855031 0.702032,-2.324422 2.323082,-0.523182 8.782789,12.462811 11.22285,21.919256 0.74992,2.906352 0.81064,4.703552 -0.95961,5.538961 -0.147236,-0.164741 2.71531,0.08855 4.81522,2.294027 0.51935,0.54546 0.5923,0.93453 0.7431,1.1685 0.21978,0.34099 0.37281,0.38553 0.39066,0.37827 0,0 -0.25359,0.17739 -0.39878,0.43681 -0.26113,0.46658 -0.58489,1.13837 -1.04539,1.5984 -0.90452,0.90359 -4.06396,1.68818 -4.06396,1.68818 l 1.03328,2.23637 c 0.5957,1.28932 0.21389,2.79045 -0.15814,4.47154 -2.867774,12.95876 -5.809185,20.94479 -9.411236,22.07496 -1.19774,0.37581 -1.833166,-0.72811 -0.966487,-2.32532 -2.08376,-4.54333 -1.112257,-15.15529 -0.535479,-17.71994 -1.293813,-2.46132 -2.23937,-4.87464 -2.776957,-7.23174 l -3.681163,-1.30343 c -3.452647,1.23284 -6.141659,3.48237 -10.357931,3.69852 -0.139494,-0.51249 2.002024,-3.41064 3.006093,-5.11517 -0.971654,-1.67016 -0.521979,-1.91745 -0.532499,-2.62542 -1.115238,-1.509685 -3.823393,-3.802749 -3.345725,-4.52905 0.468771,-0.869814 7.440362,1.560455 11.889571,2.598181 l 2.347787,-1.366919 c 0.635061,-3.524056 1.654481,-5.635804 2.585,-8.074228 -1.154343,-5.387222 -1.934883,-15.953248 -0.502236,-17.486336 z"
       id="path302"
       sodipodi:nodetypes="csscsscsscssscccccccccccc" /><path
       style="fill:#000000;stroke-width:2;stroke-linecap:round;stroke-linejoin:round"
       d="m 63.740923,132.85253 c 0.163028,0.1632 1.382205,1.85502 -0.702032,2.32442 -2.323082,0.52318 -8.78279,-12.46282 -11.222848,-21.91926 -0.749927,-2.90636 -0.810645,-4.70355 0.959604,-5.53896 0.147239,0.16474 -2.715309,-0.0885 -4.815217,-2.29403 -0.519348,-0.54546 -0.592301,-0.93454 -0.743098,-1.1685 -0.219783,-0.34099 -0.372815,-0.38553 -0.390661,-0.37828 0,0 0.253588,-0.17738 0.398778,-0.4368 0.26113,-0.46658 0.584892,-1.13837 1.045393,-1.5984 0.904518,-0.90359 4.063953,-1.68818 4.063953,-1.68818 l -1.033272,-2.23637 c -0.595699,-1.289318 -0.213891,-2.790447 0.158136,-4.471541 2.867775,-12.958756 5.809186,-20.944787 9.411237,-22.074962 1.19774,-0.375804 1.833166,0.728113 0.966487,2.325318 2.08376,4.543332 1.112258,15.155301 0.535479,17.719944 1.293813,2.461317 2.23937,4.874639 2.776957,7.231743 l 3.681163,1.30343 c 3.452647,-1.23284 6.141658,-3.482373 10.357926,-3.698518 0.139494,0.512487 -2.00202,3.410637 -3.006089,5.115166 0.971654,1.67015 0.521979,1.91745 0.532499,2.62542 1.115238,1.50968 3.823389,3.80275 3.345721,4.52905 -0.468767,0.86981 -7.440357,-1.56046 -11.889566,-2.59818 l -2.347787,1.36692 c -0.635061,3.52405 -1.654481,5.6358 -2.585,8.07423 1.154343,5.38722 1.934883,15.95324 0.502237,17.48634 z"
       id="path302-1"
       sodipodi:nodetypes="csscsscsscssscccccccccccc"
       inkscape:export-filename="H.png"
       inkscape:export-xdpi="153.74739"
       inkscape:export-ydpi="153.74739" /></g></svg>
